<?xml version="1.0" standalone="no"?><!DOCTYPE svg PUBLIC "-//W3C//DTD SVG 1.1//EN" "http://www.w3.org/Graphics/SVG/1.1/DTD/svg11.dtd"><svg t="1623579263882" class="icon" viewBox="0 0 1024 1024" version="1.1" xmlns="http://www.w3.org/2000/svg" p-id="1251" xmlns:xlink="http://www.w3.org/1999/xlink" width="200" height="200"><defs><style type="text/css"></style></defs><path d="M512.477025 0a511.992491 511.992491 0 1 0 511.523204 511.992491A511.523204 511.523204 0 0 0 512.477025 0z m204.139994 306.444635l-64.761653 290.488866v3.754298a25.810804 25.810804 0 0 1-3.754299 7.03931l-4.692873 3.754299-3.754299 3.285012-276.879532 129.523306a25.810804 25.810804 0 0 1-33.788689-29.095815l68.046665-295.651026a26.749379 26.749379 0 0 1 4.692873-8.91646 27.218666 27.218666 0 0 1 13.140046-9.855034l267.493785-123.422571a26.280091 26.280091 0 0 1 34.257976 29.095815z" fill="#F55E55" p-id="1252"></path><path d="M636.368884 353.842657l-184.429926 89.164595a10.793609 10.793609 0 0 0 0 17.832919l133.277605 109.343951a10.793609 10.793609 0 0 0 16.894345-5.631448l49.275171-198.508546a10.793609 10.793609 0 0 0-15.017195-12.201471z" fill="#F9BBB8" p-id="1253"></path><path d="M404.071649 668.734464l187.714937-93.857469a10.793609 10.793609 0 0 0 0-17.832919L461.324705 446.292263a10.793609 10.793609 0 0 0-16.894345 5.631448L389.054454 657.00228a10.793609 10.793609 0 0 0 15.017195 11.732184z" fill="#F9BBB8" p-id="1254"></path></svg>